<svg xmlns="http://www.w3.org/2000/svg" viewBox="0 0 67.98 94.98" width="16" height="16">
    <style>
        path {
            fill: #0f0f0f;
        }
        @media (prefers-color-scheme: dark) {
            path {
                fill: #fff;
            }
        }
    </style>
    <path d="M42.5 80.89C41.76 74.65 40.46 67.18 39.98 64.47C40.33 64.16 42.09 62.57 45.27 59.71L46.05 65.31C48.42 67.51 49.75 68.73 50.01 68.98C51.96 68.22 54.24 67.92 56.83 68.27C74.14 70.65 71.3 97.02 52.86 94.49C45.85 93.53 43.38 88.29 42.5 80.89ZM54.05 87.74C62.97 88.96 64.34 76.2 55.97 75.06C47.64 73.91 45.91 86.62 54.05 87.74ZM34.25 62.72C34.25 62.72 28.06 76.07 25.85 81.2C23.65 86.33 19.15 89.84 12.33 88.9C-6.19 86.36 -1.68 60.23 15.7 62.61C18.47 62.99 20.69 63.98 22.41 65.37C22.75 65.22 24.45 64.5 27.51 63.2L31.42 54.39C31.4 54.37 31.38 54.36 31.38 54.35C31.38 54.35 22.79 24.34 20.35 15.76C18.01 7.53 25.91 -0.32 25.91 -0.32C26.88 2.29 31.72 15.34 40.43 38.83C55.3 18.62 63.56 7.39 65.21 5.15C65.21 5.15 70.89 14.42 66.15 22.11C61.45 29.73 44.85 56.27 44.85 56.27C42.73 57.56 35.31 62.08 34.25 62.72ZM13.03 82.09C21.21 83.21 23.04 70.52 14.66 69.37C6.26 68.22 4.08 80.86 13.03 82.09ZM38.74 52.89C42.46 52.89 42.48 47.11 38.68 47.11C34.86 47.11 34.68 52.89 38.74 52.89Z"></path>
</svg>
